<?xml version="1.0" encoding="utf-8"?>
<!-- Generator: Adobe Illustrator 21.0.0, SVG Export Plug-In . SVG Version: 6.00 Build 0)  -->
<svg version="1.1" id="Layer_1" xmlns="http://www.w3.org/2000/svg" xmlns:xlink="http://www.w3.org/1999/xlink" x="0px" y="0px"
	 viewBox="0 0 340 149.4" style="enable-background:new 0 0 340 149.4;" xml:space="preserve">
<style type="text/css">
	.st0{fill:#273655;}
	.st1{fill:#E72F4C;}
</style>
<title>logo</title>
<g id="Layer_2">
	<g id="Calque_1">
		<path class="st0" d="M213.5,104.6c-9.8-8.3-14-18.6-10.6-31.3c1-4.1,2.9-7.8,5.8-10.9c0.3-2.3,1.5-3.8,3.9-4
			c5.3-3.8,11.1-6.6,17.8-6.3c11.8,0.5,20.6,5.9,26,16.5c0.3,0.6,0.2,1.4,1.1,1.5c1.7,1.5,2.4,3.9,1.6,6.1c0.3,7.3,0,14.4-4.4,20.9
			c-4.1,6-9.7,9.4-16.3,12s-12.9,0.4-19.2-1C216.7,108.1,214.5,106.7,213.5,104.6z"/>
		<path class="st0" d="M48.1,116.7L33.8,93.3l-14.4,23.4H0L23.4,82L0,45.6h19.7L34,69.1l14.5-23.5h19.3L44.4,80.3l23.4,36.4H48.1z"
			/>
		<path class="st1" d="M121.3,95.8c0,2.8-0.5,5.6-1.6,8.2c-1,2.7-2.6,5.1-4.7,7.1c-2.3,2.2-5,3.9-7.9,4.9c-3.6,1.3-7.4,1.9-11.2,1.8
			c-2.1,0-4.2-0.2-6.3-0.6c-2.2-0.4-4.3-0.9-6.4-1.6c-2.1-0.6-4.1-1.4-6.1-2.3c-1.8-0.8-3.6-1.8-5.2-2.9l4.6-14.9
			c3,2.1,6.2,3.8,9.6,5c3.3,1.2,6.8,1.9,10.3,1.9c2.9,0,5-0.6,6.2-1.8c1.2-1.1,1.9-2.7,1.8-4.4c0-0.9-0.1-1.7-0.4-2.6
			c-0.4-1-1-1.8-1.8-2.5c-1.2-1-2.5-1.9-3.9-2.6c-1.6-0.9-3.8-1.9-6.6-3c-2.8-1.1-5.4-2.5-7.9-4.2c-2-1.4-3.8-3-5.2-4.9
			c-1.3-1.7-2.3-3.6-2.9-5.6c-0.6-2-0.8-4.1-0.8-6.1c0-2.6,0.5-5.2,1.6-7.6c1.1-2.5,2.7-4.7,4.7-6.5c2.3-2,4.9-3.6,7.8-4.6
			c3.5-1.2,7.2-1.8,10.9-1.7c1.9,0,3.9,0.2,5.8,0.5c1.9,0.3,3.7,0.7,5.5,1.3c1.6,0.5,3.3,1.1,4.8,1.8c1.3,0.5,2.6,1.2,3.8,2
			l-4.2,14.7c-1.1-0.8-2.3-1.5-3.5-2.1c-1.3-0.7-2.6-1.3-4-1.8c-1.4-0.5-2.8-1-4.2-1.4c-1.3-0.3-2.6-0.5-4-0.5c-3,0-5.2,0.6-6.5,1.8
			c-1.2,1-1.9,2.4-1.9,4c0,1,0.2,2.1,0.7,3c0.5,0.9,1.3,1.7,2.2,2.3c1.2,0.8,2.6,1.5,3.9,2.1l5.7,2.5c2.9,1.2,5.7,2.6,8.3,4.4
			c2,1.3,3.8,3,5.3,4.8c1.3,1.6,2.2,3.5,2.8,5.5C121.1,91.5,121.3,93.6,121.3,95.8z"/>
		<path class="st1" d="M184.3,70.5c0,3.5-0.6,6.9-1.8,10.1c-1.2,3-3.1,5.8-5.5,8c-2.6,2.3-5.7,4.1-9,5.2c-4,1.3-8.2,2-12.5,1.9
			c-1.2,0-2.2,0-3.1,0c-0.9,0-1.9-0.1-3-0.2v21.2h-16.5V46.3c6.6-0.7,13.2-1.1,19.8-1.2c4.6-0.1,9.2,0.6,13.6,1.9
			c3.6,1.1,7,2.9,9.9,5.3c2.6,2.2,4.7,4.9,6.1,8C183.6,63.6,184.3,67,184.3,70.5z M167.4,70.8c0.1-2.7-1-5.4-2.9-7.3
			c-1.9-1.9-4.9-2.9-9-2.9c-1.1,0-2.1,0-2.9,0.1c-0.8,0.1-1.9,0.2-3.2,0.3v20.3l2.8,0.2c0.7,0,1.4,0,2.2,0c4.4,0,7.7-0.9,9.8-2.7
			C166.3,76.8,167.4,74.2,167.4,70.8z"/>
		<path class="st1" d="M265.9,81.2c0,5-0.9,9.9-2.7,14.6c-1.7,4.3-4.3,8.3-7.5,11.6c-3.3,3.3-7.3,5.9-11.6,7.7
			c-9.6,3.8-20.3,3.8-29.9,0c-8.7-3.5-15.4-10.5-18.6-19.3c-1.7-4.7-2.6-9.6-2.5-14.6c0-5,0.9-9.9,2.7-14.6
			c3.4-8.8,10.3-15.8,19.1-19.3c4.8-1.9,9.9-2.9,15-2.8c5.1-0.1,10.2,0.9,14.9,2.8c4.3,1.8,8.2,4.4,11.4,7.7
			c3.2,3.3,5.7,7.3,7.3,11.6C265.1,71.3,266,76.3,265.9,81.2z M248.3,81.2c0-3-0.4-6-1.4-8.9c-0.8-2.5-2.1-4.9-3.8-6.9
			c-6.4-7.5-17.8-8.4-25.3-2c-0.7,0.6-1.4,1.3-2,2c-1.7,2-3,4.4-3.8,6.9c-0.9,2.9-1.4,5.9-1.4,8.9c0,3,0.4,5.9,1.4,8.8
			c0.8,2.6,2.1,4.9,3.8,7c1.6,2,3.7,3.5,6,4.6c4.9,2.2,10.5,2.2,15.4,0c2.3-1.1,4.3-2.7,5.9-4.6c1.7-2.1,3-4.4,3.8-7
			C247.8,87.2,248.3,84.2,248.3,81.2z"/>
		<path class="st1" d="M338.4,118.1l-42.9-38.5v37.2H279V44.7l2.2-0.4l42.3,38.2V45.6H340v72.2L338.4,118.1z"/>
		<path class="st1" d="M209,17.8c2.6,11.7-4.8,23.2-16.5,25.8c-11.7,2.6-20.4-3.7-24.5-14.9C164,17.5,169.8,5.1,181,1
			C192.3-3.1,206.5,6.2,209,17.8z"/>
		<polygon class="st1" points="210,53.5 206,56.5 188.2,28.8 191.8,25.3 		"/>
		
			<ellipse transform="matrix(0.8869 -0.4619 0.4619 0.8869 17.2893 125.6047)" class="st1" cx="265.2" cy="27.5" rx="15.3" ry="15.3"/>
		<rect x="234" y="44" transform="matrix(0.6191 -0.7853 0.7853 0.6191 58.8079 214.2026)" class="st1" width="32.4" height="5"/>
		
			<ellipse transform="matrix(0.5858 -0.8105 0.8105 0.5858 -28.2026 220.1113)" class="st1" cx="201.2" cy="137.6" rx="11.8" ry="11.8"/>
		<polygon class="st1" points="215,101.1 219.6,103 205.4,132.6 200.5,131.3 		"/>
		<circle class="st0" cx="201.4" cy="137.6" r="6.5"/>
	</g>
</g>
</svg>
